<?xml version="1.0" standalone="no"?>
<!DOCTYPE svg PUBLIC "-//W3C//DTD SVG 20010904//EN"
 "http://www.w3.org/TR/2001/REC-SVG-20010904/DTD/svg10.dtd">
<svg version="1.0" xmlns="http://www.w3.org/2000/svg"
 width="1024.000000pt" height="768.000000pt" viewBox="0 0 1024.000000 768.000000"
 preserveAspectRatio="xMidYMid meet">

<g transform="translate(0.000000,768.000000) scale(0.100000,-0.100000)"
fill="#000000" stroke="none">
<path d="M0 3841 l0 -3841 2511 0 2512 0 -18 20 c-18 19 -18 22 -2 37 9 10 17
13 17 7 0 -6 7 -11 15 -11 8 0 12 4 9 8 -2 4 4 10 13 12 16 4 16 5 -1 6 -13 1
-16 6 -12 19 5 15 5 15 -6 1 -17 -20 -46 -31 -53 -18 -4 5 4 13 17 18 13 6 19
10 13 10 -19 2 -9 64 11 71 18 7 17 7 -3 18 -17 9 -24 8 -34 -5 -12 -14 -12
-16 0 -9 9 6 12 4 9 -5 -3 -8 -12 -15 -20 -17 -25 -5 -20 46 5 54 15 5 17 8 6
15 -11 7 -10 9 4 9 10 0 20 -7 23 -15 6 -15 44 -22 44 -7 0 4 -19 16 -42 26
-23 11 -36 22 -30 24 10 3 8 8 -4 16 -9 7 -14 18 -10 24 11 18 34 14 39 -6 2
-9 3 -7 2 6 -1 12 2 25 7 28 5 3 4 11 -2 19 -6 7 -10 17 -9 21 3 21 -2 26 -16
14 -11 -9 -15 -9 -15 -1 0 7 14 17 31 23 38 13 33 21 -7 9 -31 -9 -54 4 -46
27 2 6 -1 12 -7 12 -6 0 -11 5 -11 12 0 6 12 0 28 -13 24 -23 61 -29 63 -11 5
41 4 49 -6 49 -7 0 -11 -11 -9 -24 3 -25 -6 -29 -24 -11 -7 7 -12 8 -12 2 0
-5 -6 2 -13 16 -7 14 -26 32 -44 41 -32 16 -32 30 0 42 18 7 24 27 8 27 -5 0
-17 3 -27 7 -11 4 -15 3 -11 -4 4 -6 -1 -17 -10 -24 -9 -8 -14 -9 -10 -3 4 6
7 34 8 63 2 39 6 51 18 51 14 0 14 -2 1 -10 -22 -14 -3 -12 20 3 17 10 22 9
30 -3 6 -9 10 -10 10 -3 0 6 -5 15 -10 18 -8 5 -7 12 2 22 11 13 13 13 19 -4
7 -16 8 -16 8 -1 1 9 -3 19 -8 22 -13 8 -42 -4 -35 -15 11 -19 -28 -21 -44 -3
-15 15 -15 16 -1 6 13 -10 19 -9 29 3 11 13 8 15 -16 16 -24 1 -25 2 -6 6 12
2 20 9 17 14 -3 5 -1 18 6 30 8 15 8 19 0 15 -6 -4 -15 2 -19 15 -7 19 -10 20
-15 6 -4 -10 1 -20 11 -27 15 -8 15 -11 2 -20 -11 -7 -19 -5 -31 9 -18 22 -42
10 -32 -15 3 -8 0 -14 -6 -14 -17 0 -13 19 9 47 12 15 20 20 20 12 1 -9 6 -7
16 6 9 12 13 30 9 45 -5 24 -5 24 10 -3 15 -26 35 -29 35 -6 0 6 -4 8 -9 4
-15 -9 -25 16 -10 26 10 6 7 8 -10 6 -13 -2 -30 -12 -37 -22 -18 -25 -18 -15
2 24 8 17 19 29 24 26 4 -3 14 3 21 12 8 10 9 14 2 10 -6 -4 -14 -3 -18 3 -3
5 -1 10 4 10 6 0 11 7 11 15 0 8 -4 15 -10 15 -12 0 -31 -35 -23 -44 3 -3 1
-6 -6 -6 -7 0 -10 -4 -7 -8 7 -11 -11 -37 -26 -37 -7 -1 -12 -6 -11 -13 2 -6
-4 -9 -13 -5 -12 4 -10 9 11 23 25 16 34 35 18 35 -5 0 -17 6 -28 13 -18 11
-16 12 14 6 31 -6 33 -4 28 15 -3 12 0 21 6 21 8 0 7 4 -2 9 -7 5 -22 6 -32 4
-10 -3 -19 0 -19 6 0 6 7 8 17 4 12 -5 15 -2 10 10 -3 9 -2 17 4 17 5 0 12 -6
15 -14 3 -8 14 -14 24 -13 20 1 17 12 -2 12 -22 0 -19 24 4 28 13 2 4 3 -20 1
-23 -2 -47 -6 -52 -9 -6 -3 -10 -1 -10 4 0 6 7 11 15 11 8 0 15 5 15 10 0 6
-6 10 -14 10 -8 0 -13 8 -11 18 1 9 -3 24 -9 32 -10 13 -9 13 6 1 10 -7 16
-17 13 -21 -3 -4 2 -10 10 -13 22 -9 16 72 -7 84 -10 6 -16 14 -13 20 6 8 -8
13 -27 10 -9 -1 -9 -1 -14 44 -2 24 -1 27 7 12 6 -9 7 -22 4 -28 -4 -6 -1 -9
6 -8 26 4 50 -12 39 -26 -8 -9 -7 -14 4 -18 8 -3 16 2 19 14 3 13 0 22 -10 26
-11 4 -12 8 -3 13 9 5 6 10 -9 15 -11 3 -21 11 -21 16 0 6 4 7 10 4 6 -4 9 5
8 19 -1 14 -8 28 -16 31 -7 3 -10 10 -6 16 5 8 -1 10 -18 7 -15 -3 -25 0 -25
7 0 21 37 11 56 -14 17 -23 20 -23 35 -9 20 21 20 28 1 28 -8 0 -15 -6 -15
-12 -1 -7 -8 7 -17 32 -8 25 -19 47 -23 50 -4 3 -7 16 -6 30 1 26 35 45 47 27
8 -12 29 0 29 16 0 8 -3 8 -9 -1 -6 -10 -10 -10 -20 2 -12 14 -39 14 -61 1 -6
-3 -10 -1 -10 4 0 6 7 11 16 11 9 0 12 5 8 13 -6 9 -5 9 7 0 23 -18 42 3 28
30 -8 13 -8 17 -1 13 6 -3 14 -1 18 5 4 8 3 9 -4 5 -7 -4 -12 -2 -12 4 0 6 -4
9 -9 5 -5 -3 -12 -1 -16 5 -4 6 -12 7 -18 4 -7 -4 -9 -4 -5 1 4 4 3 13 -2 20
-7 8 -5 12 5 12 8 0 13 -3 10 -5 -11 -11 17 -30 36 -25 12 4 26 -2 35 -13 9
-11 13 -14 10 -7 -3 6 -3 19 0 28 5 13 8 14 15 3 5 -8 9 -9 9 -2 0 6 -7 17
-16 24 -8 8 -14 9 -13 4 4 -24 -3 -30 -31 -26 -17 2 -30 10 -30 18 0 8 4 14 8
14 4 0 8 9 8 19 0 14 -4 17 -12 10 -8 -7 -10 -2 -6 18 5 26 4 27 -13 13 -11
-9 -16 -10 -11 -2 4 7 2 12 -4 12 -6 0 -8 5 -4 11 3 6 18 8 33 5 22 -4 21 -3
-7 10 -26 11 -31 18 -24 32 5 9 8 28 6 41 -4 20 -2 22 11 11 11 -9 12 -17 5
-30 -7 -14 -6 -23 6 -34 19 -20 25 -20 18 -1 -4 8 -10 15 -15 15 -10 0 6 32
31 64 8 11 10 16 3 13 -6 -4 -13 -4 -16 0 -2 5 -2 2 -1 -4 4 -17 -4 -16 -22 2
-9 8 -11 15 -5 15 6 0 11 6 11 14 0 8 6 17 13 19 6 3 2 6 -10 6 -30 1 -37 16
-17 36 15 15 18 15 41 -1 31 -20 50 -6 34 25 -8 13 -8 21 -2 21 6 0 8 7 5 15
-5 12 -10 13 -20 4 -18 -15 -18 -24 2 -44 21 -21 12 -30 -15 -13 -14 9 -19 19
-15 33 6 19 6 19 -8 1 -10 -13 -17 -15 -22 -8 -4 6 6 18 24 27 24 13 30 20 24
37 -3 11 -2 18 3 15 5 -3 14 3 21 13 7 12 8 21 2 25 -6 4 -8 11 -5 16 4 5 2 9
-3 9 -5 0 -9 7 -9 16 0 14 2 14 11 3 13 -17 75 -19 69 -3 -2 6 -15 9 -29 6
-18 -3 -24 0 -24 14 0 16 2 17 10 4 8 -13 11 -12 24 5 8 11 13 29 10 40 -4 14
-3 16 4 7 7 -11 12 -6 20 17 7 19 18 31 29 32 10 0 13 3 5 6 -17 7 -15 23 2
23 8 0 18 9 21 20 4 11 11 18 16 15 13 -9 11 9 -3 23 -9 9 -6 11 11 7 18 -3
21 -1 17 12 -6 14 -4 14 10 2 15 -12 16 -11 9 10 -5 15 -4 21 3 17 6 -3 20 6
32 21 12 15 32 35 46 44 13 8 21 19 17 24 -5 4 -3 5 4 1 6 -3 14 -2 18 4 4 6
11 7 17 4 8 -5 9 -1 5 10 -4 9 -3 15 1 12 11 -7 45 21 38 33 -4 5 -1 13 5 17
8 4 9 3 5 -4 -13 -21 6 -13 30 13 13 14 30 25 37 25 8 0 17 7 21 15 3 8 11 15
18 15 7 0 19 9 26 20 7 12 17 18 23 15 5 -4 8 -1 7 6 -3 12 2 15 36 18 8 0 18
10 21 21 3 11 13 20 22 20 8 0 32 13 53 30 21 16 43 30 49 30 6 0 10 5 9 11
-2 6 3 14 11 17 9 3 11 0 6 -9 -4 -8 2 -4 14 9 12 12 27 22 33 22 6 0 16 7 22
14 6 8 18 16 26 18 8 2 23 12 33 22 9 10 17 16 17 11 0 -4 13 7 29 26 26 30
31 32 47 18 10 -7 15 -9 11 -2 -9 15 19 43 43 43 10 0 22 5 25 10 4 6 11 8 16
5 5 -3 6 1 3 9 -5 12 0 16 17 16 19 0 21 2 9 10 -8 5 -10 10 -4 10 6 0 16 10
22 23 8 17 11 18 11 5 1 -20 16 -24 27 -6 4 7 3 8 -4 4 -7 -4 -12 -2 -12 3 0
6 9 11 20 11 11 0 20 5 20 11 0 5 4 7 10 4 5 -3 7 0 4 9 -4 10 2 16 17 18 12
2 24 10 26 18 4 13 3 13 -6 0 -8 -11 -11 -12 -11 -2 0 8 9 16 20 19 11 3 21 9
21 14 1 5 2 15 3 22 1 6 10 11 19 10 12 0 16 4 13 13 -4 11 1 13 19 10 14 -3
23 -1 20 4 -3 5 0 10 7 13 7 2 5 3 -5 1 -14 -2 -16 2 -11 18 4 14 2 18 -5 14
-7 -5 -11 1 -10 16 0 13 3 18 5 11 3 -7 12 -9 20 -6 7 3 12 9 9 13 -3 4 2 11
11 14 8 3 12 11 8 17 -4 8 0 9 15 4 17 -5 20 -3 14 12 -6 16 -5 16 10 4 15
-12 17 -11 17 10 0 19 2 21 10 9 8 -12 10 -9 10 11 0 15 -8 33 -17 40 -17 13
-17 13 -3 -6 l15 -20 -24 20 -23 20 68 6 69 5 -77 2 -78 2 0 380 0 380 80 0
80 0 1 -302 c1 -167 3 -295 6 -285 3 12 11 16 21 13 15 -5 15 -5 0 7 -24 19
-19 73 6 69 15 -3 16 -1 5 11 -8 8 -18 13 -22 10 -5 -3 -4 5 3 17 9 18 9 24 0
30 -14 9 -5 30 13 30 8 0 8 -3 -2 -9 -9 -6 -10 -11 -2 -15 6 -4 15 -5 21 -1
14 9 1 33 -21 38 -13 3 -11 4 5 3 14 0 26 4 26 9 1 6 8 17 16 26 8 9 12 18 10
20 -2 2 6 4 19 4 13 0 21 -3 18 -7 -2 -5 0 -8 5 -8 13 0 24 29 16 41 -3 5 -10
6 -16 3 -7 -4 -8 -2 -4 4 4 6 13 9 21 5 11 -4 13 -1 9 11 -3 9 -10 13 -15 10
-5 -3 -9 -1 -9 4 0 13 29 24 42 16 7 -4 8 8 5 35 -3 25 0 44 7 48 6 3 8 3 4
-2 -4 -4 4 -14 18 -22 37 -18 47 -16 34 7 -6 11 -7 20 -3 19 4 -1 15 -1 23 0
12 1 11 4 -4 12 -15 9 -16 13 -5 20 11 7 10 9 -3 9 -27 0 -22 17 6 22 18 4 23
1 19 -10 -5 -12 -3 -12 16 -1 21 14 26 31 22 79 -1 25 -1 25 15 5 16 -20 16
-20 11 3 -4 19 -2 22 13 17 10 -3 22 0 26 6 4 8 3 9 -4 5 -7 -4 -20 -2 -29 4
-16 10 -16 11 -1 6 19 -5 42 16 30 29 -4 4 3 5 16 2 23 -5 31 7 10 17 -10 5
-10 7 0 12 6 3 10 10 6 15 -3 5 2 9 12 9 13 0 14 3 4 15 -11 13 -8 14 19 9 25
-5 31 -3 31 11 0 12 -5 15 -17 11 -10 -4 -5 5 12 23 17 17 38 31 48 31 9 0 17
5 17 10 0 6 10 15 23 20 19 8 20 9 3 9 -11 1 -16 4 -13 8 4 3 1 13 -6 21 -7
10 -8 13 -1 9 7 -4 18 0 25 9 12 14 14 14 19 -2 6 -16 7 -16 12 3 5 18 2 21
-19 17 -33 -6 -21 11 25 37 20 11 29 18 19 15 -10 -3 -15 -2 -12 4 3 6 17 10
31 10 14 0 22 -4 19 -10 -9 -15 4 -12 21 5 14 14 11 19 -9 16 -5 -1 -5 4 -1
11 4 7 7 26 6 42 -2 17 0 28 3 25 3 -3 6 -18 7 -32 2 -28 12 -35 23 -17 3 6 1
10 -4 10 -6 0 -11 6 -11 14 0 19 26 67 33 60 11 -11 49 8 43 22 -3 8 -2 14 3
14 4 0 6 21 5 48 -1 33 0 41 6 27 5 -12 9 -14 9 -6 1 11 4 10 15 -4 12 -17 13
-17 18 7 4 22 2 25 -16 20 -21 -4 -21 -4 -1 11 15 12 23 13 34 4 12 -10 14 -9
8 6 -3 9 -2 17 4 17 12 0 44 30 32 30 -4 0 1 7 11 15 11 8 14 15 8 15 -7 0
-12 4 -12 8 0 5 7 9 15 9 8 0 15 -6 15 -14 0 -7 5 -13 11 -13 6 0 9 7 5 15 -4
11 1 15 18 15 20 0 23 4 19 21 -4 15 0 27 12 35 11 8 13 14 7 14 -7 0 -12 3
-12 8 0 4 16 7 35 8 25 0 32 -3 25 -11 -5 -7 -6 -16 -2 -21 4 -4 0 -3 -9 4
-13 10 -19 8 -34 -8 -10 -11 -16 -20 -14 -21 2 0 12 -2 22 -4 9 -2 15 1 11 6
-5 8 18 14 40 10 5 -1 4 4 -3 13 -8 10 -9 16 -1 21 6 4 8 15 5 26 -4 12 -2 19
7 19 10 0 9 3 -2 10 -10 6 0 8 33 7 l47 -2 -25 18 c-14 10 -22 23 -19 29 3 5
14 2 25 -8 11 -9 22 -14 26 -11 3 4 1 7 -5 7 -7 0 -12 5 -12 11 0 5 4 7 10 4
5 -3 10 -2 10 4 0 5 -6 12 -12 15 -7 3 -4 4 7 3 15 -2 19 -9 17 -27 -2 -24 -2
-24 12 -5 8 11 13 22 11 26 -7 11 30 6 37 -5 5 -7 8 -7 8 3 0 8 6 11 16 7 9
-3 12 -2 9 4 -4 6 -8 24 -10 40 -4 28 -2 30 28 30 29 -1 30 -2 15 -14 -19 -14
-23 -26 -10 -26 11 0 31 38 37 70 3 14 9 26 15 28 6 2 8 8 4 13 -3 5 -1 9 5 9
5 0 12 -6 14 -12 4 -10 6 -10 6 0 1 6 6 12 12 12 6 0 9 -6 6 -14 -3 -8 -1 -17
6 -20 7 -4 2 -4 -10 -2 -15 3 -22 -2 -25 -18 l-5 -23 39 19 c21 10 38 21 38
24 0 3 -4 3 -9 0 -5 -3 -12 1 -15 10 -4 11 -2 15 7 11 8 -3 14 1 14 9 0 8 -4
14 -9 14 -4 0 -8 7 -8 15 0 17 9 19 30 5 11 -7 11 -10 2 -10 -9 0 -10 -5 -3
-19 6 -10 7 -22 3 -26 -4 -5 -1 -5 6 -1 6 4 12 15 12 25 0 29 24 71 38 66 7
-3 23 5 35 17 12 11 15 17 7 13 -12 -7 -13 -6 -3 6 11 14 13 19 13 42 0 7 3 8
8 2 9 -13 35 -19 28 -6 -4 5 -2 12 4 16 5 3 10 1 10 -6 0 -7 3 -10 6 -7 3 4 0
16 -6 28 -8 15 -8 20 -1 16 16 -11 34 3 22 17 -6 8 -4 17 7 27 14 13 15 12 9
-5 -5 -11 -3 -21 4 -26 17 -10 39 0 33 16 -3 7 0 16 5 20 6 3 8 11 5 17 -4 7
-2 8 5 4 6 -4 9 -13 5 -19 -3 -7 1 -4 9 6 17 20 33 22 40 5 3 -8 6 -6 6 5 1 9
5 17 11 17 5 0 7 -6 4 -13 -3 -8 2 -14 11 -14 8 0 13 3 10 5 -3 3 0 11 6 19 9
10 7 13 -7 13 -11 0 -26 5 -34 10 -11 7 -6 9 20 9 19 0 55 6 80 15 43 14 44
15 13 15 -17 1 -34 5 -37 10 -4 5 3 7 14 4 11 -3 20 0 20 6 0 6 8 11 18 12 10
0 12 3 5 6 -7 2 -13 8 -13 12 0 13 49 31 67 25 15 -5 16 -4 3 5 -13 10 -13 12
0 21 8 5 15 15 15 22 1 13 8 14 37 3 13 -5 18 1 24 29 5 29 11 36 29 36 18 0
22 4 18 20 -3 12 1 22 11 26 9 3 16 11 16 16 0 6 -6 8 -14 5 -8 -3 -17 1 -20
9 -9 24 -7 56 3 50 5 -3 7 -15 4 -26 -3 -13 0 -20 8 -21 8 -1 24 -3 37 -4 12
-1 25 2 28 6 3 5 -4 9 -15 9 -12 0 -21 5 -21 11 0 5 -4 8 -8 5 -5 -3 -9 0 -9
7 0 7 16 12 39 13 33 0 38 -3 38 -23 0 -13 4 -23 9 -23 5 0 7 9 4 20 -3 11 -1
20 5 20 6 0 9 11 7 25 -1 14 2 25 6 25 5 0 9 -4 9 -10 0 -5 7 -7 15 -4 8 4 15
12 15 20 0 8 -6 11 -15 8 -8 -4 -15 -1 -15 6 0 6 5 8 10 5 9 -6 14 11 13 43
-1 7 4 11 11 9 12 -5 12 -11 1 -39 -4 -11 -3 -18 4 -18 6 0 11 5 11 11 0 5 6
7 13 3 9 -5 9 -4 0 6 -9 10 -6 19 15 41 15 16 32 29 38 29 7 0 14 6 17 14 7
17 -21 15 -32 -3 -6 -10 -12 -9 -25 4 -14 15 -16 15 -16 1 0 -9 -4 -16 -10
-16 -5 0 -10 5 -10 11 0 5 -5 7 -12 3 -7 -4 -8 -3 -4 4 5 8 -1 12 -14 12 -12
0 -18 5 -15 10 4 6 11 7 17 4 6 -4 24 -7 39 -6 16 0 29 -4 29 -9 0 -5 5 -9 11
-9 5 0 7 5 4 10 -4 6 9 10 30 10 28 0 38 -5 42 -20 3 -11 9 -20 15 -20 12 0
-6 31 -31 53 -22 18 -41 22 -41 9 0 -4 -10 -8 -22 -9 -22 -2 -22 -1 -5 12 14
10 15 14 5 19 -7 3 -3 3 10 0 18 -4 22 -1 22 16 0 12 5 18 10 15 6 -3 10 -1
10 4 0 6 -12 11 -26 11 -16 0 -23 4 -18 11 3 6 18 9 31 6 28 -5 81 17 64 27
-5 4 -12 2 -15 -2 -3 -5 -19 -9 -35 -10 -16 0 -40 -6 -53 -12 -22 -11 -22 -10
-4 4 11 9 23 16 28 16 4 0 7 10 5 23 -1 17 3 21 19 19 12 -1 27 5 35 14 12 15
12 16 -8 10 -12 -4 -24 -2 -28 3 -3 6 0 9 7 6 7 -3 20 0 28 5 13 9 13 11 0 20
-11 7 -11 10 -2 10 7 0 15 -7 18 -15 9 -24 41 -38 47 -21 3 8 -1 13 -10 12 -8
0 -19 8 -23 20 -7 18 -5 21 13 19 37 -4 38 -5 33 -13 -2 -4 4 -14 16 -21 16
-10 19 -10 12 1 -15 23 -13 38 8 52 11 8 15 16 9 20 -5 4 -8 13 -5 20 3 7 -2
16 -10 19 -19 7 -20 3 -5 -24 12 -23 -4 -51 -25 -43 -18 7 -16 34 3 35 10 0
12 2 4 6 -28 11 -11 39 20 34 4 0 7 4 7 10 0 6 9 9 19 6 10 -2 25 -1 32 4 11
6 9 9 -7 9 -17 0 -21 5 -17 28 3 26 3 26 -8 5 -7 -13 -16 -23 -21 -23 -13 0
-9 9 17 38 23 24 25 25 25 7 1 -19 1 -19 11 -2 8 14 7 23 -5 36 -9 10 -16 24
-15 32 0 8 4 4 9 -8 5 -13 14 -23 19 -23 6 0 7 8 4 17 -6 15 -5 16 9 3 8 -8
13 -22 10 -30 -3 -9 2 -6 11 5 13 16 17 17 18 5 1 -8 1 -18 0 -22 -2 -16 17
-8 23 9 4 10 4 14 0 11 -3 -4 -16 7 -28 25 -28 41 -13 61 43 55 32 -3 37 -1
33 14 -5 21 23 25 31 6 4 -9 6 -8 6 2 1 9 -3 20 -9 26 -11 11 -2 54 12 54 5 0
6 -9 3 -20 -5 -14 -2 -20 10 -20 12 0 15 6 10 20 -4 11 -2 20 4 20 6 0 8 7 5
15 -4 8 -1 15 5 15 6 0 11 7 11 15 0 8 5 15 11 15 7 0 9 -10 7 -24 -6 -28 17
-44 26 -20 8 22 7 26 -4 19 -5 -3 -10 -2 -10 4 0 20 22 22 27 2 3 -12 9 -21
15 -21 5 0 4 8 -1 19 -8 14 -7 22 3 30 7 6 16 8 19 4 4 -3 7 -1 7 5 0 7 -7 12
-16 12 -8 0 -13 4 -9 10 4 6 15 6 30 0 19 -7 25 -6 25 5 0 7 -5 17 -12 21 -7
5 -8 3 -3 -6 5 -9 4 -11 -4 -6 -6 4 -9 12 -5 17 3 5 9 7 14 4 4 -3 10 2 13 10
4 10 1 12 -11 9 -12 -4 -11 -2 3 7 11 7 26 19 34 27 12 12 15 12 23 -2 5 -9 6
-22 2 -29 -5 -9 -4 -9 5 -1 9 8 9 18 1 38 -5 15 -6 25 -1 21 5 -3 16 4 24 15
7 11 17 17 20 14 9 -9 39 24 32 35 -3 5 4 13 16 16 14 5 25 2 30 -6 7 -12 9
-11 9 1 0 20 47 63 60 55 16 -10 12 15 -5 32 -15 15 -12 33 5 33 5 0 6 -7 3
-17 -4 -11 -3 -14 5 -9 7 4 12 14 12 23 0 9 6 13 15 9 8 -3 15 0 15 6 0 6 8
17 18 24 15 12 15 13 1 14 -9 0 -20 7 -23 16 -9 25 -7 25 14 4 24 -24 40 -26
40 -4 0 8 -5 12 -11 9 -6 -4 -5 2 2 13 7 12 15 20 18 20 4 0 19 0 35 1 28 1
29 2 10 16 -10 8 -14 15 -7 15 7 0 24 11 39 25 21 20 30 23 41 13 10 -8 17 -8
21 -2 4 6 16 16 27 23 19 12 19 12 -2 8 -13 -3 -25 -1 -28 4 -3 4 -12 6 -20 2
-8 -3 -15 0 -15 7 0 6 -4 8 -10 5 -5 -3 -10 -1 -10 5 0 6 6 10 13 9 30 -4 58
2 52 11 -3 6 1 10 9 10 28 0 17 20 -11 21 -25 1 -23 3 18 22 32 15 45 27 44
40 -3 18 5 22 21 10 5 -5 -1 2 -14 13 -16 14 -20 24 -13 28 8 5 8 13 1 27 -6
11 -16 16 -22 13 -7 -4 -8 -3 -4 4 11 18 21 14 36 -14 12 -22 12 -27 0 -35
-13 -9 -13 -10 0 -6 8 2 18 17 21 33 4 16 7 25 8 20 0 -5 7 -4 14 2 10 9 20 7
38 -5 21 -15 22 -15 11 -1 -11 14 -10 17 5 21 13 4 11 5 -7 7 -14 0 -2251 4
-4972 6 l-4948 6 0 -3841z m9640 3514 c0 -8 -9 -15 -20 -15 -25 0 -26 17 -2
23 9 3 18 5 20 6 1 0 2 -6 2 -14z m-124 -127 c4 -7 4 -10 -1 -6 -4 4 -17 3
-29 -3 -20 -10 -20 -10 -2 5 24 19 23 19 32 4z m-55 -85 c13 -16 12 -17 -3 -4
-10 7 -18 15 -18 17 0 8 8 3 21 -13z m-21 -13 c0 -5 -4 -10 -10 -10 -5 0 -10
5 -10 10 0 6 5 10 10 10 6 0 10 -4 10 -10z m-120 -80 c13 -8 13 -10 -2 -10 -9
0 -20 5 -23 10 -8 13 5 13 25 0z m-125 -181 c-3 -4 -13 -5 -22 -2 -11 4 -13 8
-5 11 7 2 9 9 5 15 -4 7 1 6 10 -2 9 -7 14 -17 12 -22z m-121 -38 c11 -4 15
-10 9 -14 -5 -3 -19 0 -29 8 -20 15 -11 18 20 6z m-36 -67 c-3 -14 -5 -12 -10
9 -3 19 -2 25 4 19 6 -6 8 -18 6 -28z m-38 -14 c0 -5 -2 -10 -4 -10 -3 0 -8 5
-11 10 -3 6 -1 10 4 10 6 0 11 -4 11 -10z m-26 -16 c3 -8 2 -12 -4 -9 -6 3
-10 10 -10 16 0 14 7 11 14 -7z m-185 -223 c9 -6 10 -11 2 -15 -17 -11 -13
-29 4 -22 20 7 19 3 -6 -20 -21 -19 -21 -19 -18 14 3 21 -1 36 -11 42 -13 9
-13 10 0 10 8 0 21 -4 29 -9z m-92 -113 c-3 -7 -5 -2 -5 12 0 14 2 19 5 13 2
-7 2 -19 0 -25z m-42 -28 c3 -5 1 -10 -4 -10 -6 0 -11 5 -11 10 0 6 2 10 4 10
3 0 8 -4 11 -10z m-54 -177 c-12 -20 -14 -14 -5 12 4 9 9 14 11 11 3 -2 0 -13
-6 -23z m46 12 c0 -8 -4 -12 -9 -9 -4 3 -8 9 -8 15 0 5 4 9 8 9 5 0 9 -7 9
-15z m3 -110 c-7 -9 -15 -13 -18 -10 -3 2 1 11 8 20 7 9 15 13 18 10 3 -2 -1
-11 -8 -20z m-60 -32 c0 -9 -3 -13 -7 -10 -3 4 -17 -6 -31 -21 -17 -18 -24
-21 -19 -9 4 10 7 22 7 27 0 5 9 12 20 15 11 4 17 11 14 17 -4 7 -2 8 4 4 7
-4 12 -14 12 -23z m-60 7 c0 -5 -5 -10 -11 -10 -5 0 -7 5 -4 10 3 6 8 10 11
10 2 0 4 -4 4 -10z m-10 -64 c0 -3 -4 -8 -10 -11 -5 -3 -10 -1 -10 4 0 6 5 11
10 11 6 0 10 -2 10 -4z m-100 -90 c0 -3 -4 -8 -10 -11 -5 -3 -10 -1 -10 4 0 6
5 11 10 11 6 0 10 -2 10 -4z m-109 -45 c-7 -5 -10 -14 -7 -20 4 -6 2 -11 -3
-11 -6 0 -11 9 -11 20 0 12 7 20 18 20 13 0 14 -2 3 -9z m119 -11 c0 -5 -4
-10 -10 -10 -5 0 -10 5 -10 10 0 6 5 10 10 10 6 0 10 -4 10 -10z m-55 -31 l20
-9 -20 3 c-11 1 -25 -4 -32 -13 -11 -13 -12 -13 -13 1 0 29 12 34 45 18z m10
-29 c-3 -5 -13 -10 -21 -10 -8 0 -12 5 -9 10 3 6 13 10 21 10 8 0 12 -4 9 -10z
m-68 -6 c-3 -3 -12 -4 -19 -1 -8 3 -5 6 6 6 11 1 17 -2 13 -5z m-37 -24 c0 -5
-4 -10 -10 -10 -5 0 -10 5 -10 10 0 6 5 10 10 10 6 0 10 -4 10 -10z m45 0 c3
-5 1 -10 -4 -10 -6 0 -11 5 -11 10 0 6 2 10 4 10 3 0 8 -4 11 -10z m-94 -77
c-12 -20 -14 -14 -5 12 4 9 9 14 11 11 3 -2 0 -13 -6 -23z m-335 -264 c3 -6 0
-15 -7 -20 -22 -14 -29 -11 -29 11 0 21 24 27 36 9z m-49 -53 c-4 -9 -11 -16
-17 -16 -13 0 -13 17 0 25 6 4 7 12 4 18 -5 9 -4 9 6 0 7 -6 10 -19 7 -27z
m-229 -180 c-1 -14 -6 -22 -10 -20 -4 3 -4 12 -1 21 5 12 3 14 -7 8 -9 -5 -11
-4 -6 3 12 20 26 13 24 -12z m-268 -192 c0 -2 -9 -4 -21 -4 -11 0 -18 4 -14
10 5 8 35 3 35 -6z m-99 -91 c-12 -20 -14 -14 -5 12 4 9 9 14 11 11 3 -2 0
-13 -6 -23z m-101 -119 c0 -8 -19 -13 -24 -6 -3 5 1 9 9 9 8 0 15 -2 15 -3z
m-11 -51 c-12 -14 -12 -16 0 -8 10 5 12 4 7 -3 -11 -19 -26 -14 -26 8 0 12 7
20 16 20 14 0 15 -2 3 -17z m-125 -89 c3 -8 2 -12 -4 -9 -6 3 -10 10 -10 16 0
14 7 11 14 -7z m30 -33 c-8 -8 -34 -10 -38 -2 -3 4 6 7 19 7 14 0 22 -2 19 -5z
m-57 -17 c-3 -3 -12 -4 -19 -1 -8 3 -5 6 6 6 11 1 17 -2 13 -5z m-72 -154 c0
-21 -22 -23 -28 -1 -3 13 0 18 12 16 9 -1 16 -8 16 -15z m-2967 -16 c82 -34
132 -110 132 -199 0 -93 -36 -156 -115 -198 -37 -20 -59 -22 -280 -27 -224 -5
-243 -6 -286 -28 -60 -29 -97 -83 -112 -161 l-12 -61 -63 0 -64 0 7 58 c14
115 69 209 150 261 l41 26 -18 40 c-48 108 11 249 122 294 14 5 123 10 243 10
175 1 225 -2 255 -15z m2932 2 c0 -3 -4 -8 -10 -11 -5 -3 -10 -1 -10 4 0 6 5
11 10 11 6 0 10 -2 10 -4z m-2290 -356 l0 -140 155 0 155 0 1 63 c1 34 3 69 4
77 1 8 3 43 4 78 l1 62 75 0 75 0 0 -380 0 -381 -77 3 -78 3 0 160 0 160 -158
3 -157 3 0 -166 0 -165 -80 0 -80 0 0 380 0 380 80 0 80 0 0 -140z m1512 25
c1 -63 3 -130 4 -147 2 -18 0 -138 -3 -265 l-6 -233 -74 0 -73 0 0 380 0 380
75 0 75 0 2 -115z m593 74 c11 -17 -1 -21 -15 -4 -8 9 -8 15 -2 15 6 0 14 -5
17 -11z m-1062 -170 c32 -8 62 -25 96 -55 73 -65 83 -103 89 -311 l4 -173 -76
0 -76 0 0 30 0 30 -21 -21 c-49 -49 -157 -70 -240 -45 -66 19 -120 62 -157
124 -24 42 -27 57 -27 137 0 75 4 98 23 135 74 141 201 190 385 149z m-1473
-138 c0 -21 -9 -69 -21 -106 -16 -53 -31 -77 -72 -119 -29 -29 -62 -59 -75
-67 -23 -14 -23 -14 -5 -49 39 -79 13 -195 -59 -255 -61 -52 -81 -55 -312 -55
l-214 0 -53 28 c-68 35 -108 95 -116 175 -10 94 47 184 140 225 19 8 93 12
226 12 109 0 223 5 252 10 97 18 162 84 175 177 9 63 9 63 74 63 l60 0 0 -39z
m2010 -615 c0 -3 -4 -8 -10 -11 -5 -3 -10 -1 -10 4 0 6 5 11 10 11 6 0 10 -2
10 -4z m-1250 -1026 c0 -5 -5 -10 -11 -10 -5 0 -7 5 -4 10 3 6 8 10 11 10 2 0
4 -4 4 -10z m-100 -210 c0 -5 -7 -7 -15 -4 -8 4 -12 10 -9 15 6 11 24 2 24
-11z m-74 -200 c0 -12 -4 -16 -9 -11 -5 5 -6 14 -3 20 10 15 12 14 12 -9z m11
-137 c-4 -3 -1 -13 6 -21 11 -13 9 -14 -10 -1 -16 9 -19 16 -10 21 15 9 23 10
14 1z m-36 -90 c13 -16 12 -17 -3 -4 -17 13 -22 21 -14 21 2 0 10 -8 17 -17z
m63 -29 c3 -8 2 -12 -4 -9 -6 3 -10 10 -10 16 0 14 7 11 14 -7z m-19 -32 c-8
-8 -25 10 -19 20 4 6 9 5 15 -3 4 -7 6 -15 4 -17z m-25 -6 c0 -3 -4 -8 -10
-11 -5 -3 -10 -1 -10 4 0 6 5 11 10 11 6 0 10 -2 10 -4z m30 -51 c0 -11 -29
-11 -33 -1 -4 10 1 12 14 9 10 -3 19 -7 19 -8z m-40 -21 c0 -8 -19 -13 -24 -6
-3 5 1 9 9 9 8 0 15 -2 15 -3z m23 -64 c-6 -7 -23 23 -23 40 0 8 6 4 13 -10 8
-14 12 -27 10 -30z m14 -92 c-3 -8 -6 -5 -6 6 -1 11 2 17 5 13 3 -3 4 -12 1
-19z m-9 -157 c-7 -11 -16 -18 -20 -15 -4 3 -2 11 5 19 18 21 29 18 15 -4z
m62 -341 c0 -5 -2 -10 -4 -10 -3 0 -8 5 -11 10 -3 6 -1 10 4 10 6 0 11 -4 11
-10z m47 -115 c0 -8 -4 -12 -9 -9 -4 3 -8 9 -8 15 0 5 4 9 8 9 5 0 9 -7 9 -15z
m53 -195 c0 -5 -2 -10 -4 -10 -3 0 -8 5 -11 10 -3 6 -1 10 4 10 6 0 11 -4 11
-10z m17 -82 c-3 -8 -6 -5 -6 6 -1 11 2 17 5 13 3 -3 4 -12 1 -19z m30 -22
c-3 -8 -1 -16 6 -19 6 -2 5 -6 -5 -9 -11 -5 -15 -2 -13 10 2 9 4 20 4 25 1 4
4 7 7 7 3 0 4 -6 1 -14z m39 -53 c-10 -10 -19 5 -10 18 6 11 8 11 12 0 2 -7 1
-15 -2 -18z m-39 -98 c0 -8 -4 -12 -9 -9 -5 3 -6 10 -3 15 9 13 12 11 12 -6z
m33 -95 c0 -5 -2 -10 -4 -10 -3 0 -8 5 -11 10 -3 6 -1 10 4 10 6 0 11 -4 11
-10z"/>
<path d="M3479 4307 c-47 -36 -51 -97 -10 -138 l29 -29 192 0 c240 0 260 8
260 96 0 24 -8 43 -25 59 -24 25 -25 25 -227 25 -144 -1 -208 -4 -219 -13z"/>
<path d="M5443 3860 c-88 -53 -84 -208 6 -255 39 -20 116 -19 151 2 36 21 70
81 70 124 0 114 -131 188 -227 129z"/>
<path d="M3389 3501 c-20 -20 -29 -39 -29 -61 0 -22 9 -41 29 -61 l29 -29 192
0 c211 0 238 6 259 58 16 37 5 77 -26 102 -24 18 -41 20 -225 20 l-200 0 -29
-29z"/>
<path d="M9860 7589 c0 -5 5 -7 10 -4 6 3 10 8 10 11 0 2 -4 4 -10 4 -5 0 -10
-5 -10 -11z"/>
<path d="M9835 7510 c-3 -5 -1 -10 4 -10 6 0 11 5 11 10 0 6 -2 10 -4 10 -3 0
-8 -4 -11 -10z"/>
<path d="M9694 7343 c1 -22 2 -22 14 -6 7 10 19 17 25 15 7 -2 9 0 4 4 -4 4
-16 8 -26 9 -14 1 -18 -5 -17 -22z"/>
<path d="M9620 7285 c0 -7 5 -17 12 -21 6 -4 8 -3 4 4 -3 5 -1 12 6 14 8 3 6
7 -5 11 -11 4 -17 1 -17 -8z"/>
<path d="M9390 7031 c0 -6 4 -13 10 -16 6 -3 7 1 4 9 -7 18 -14 21 -14 7z"/>
<path d="M9336 6953 c-6 -14 -5 -15 5 -6 7 7 10 15 7 18 -3 3 -9 -2 -12 -12z"/>
<path d="M8990 6679 c0 -5 -4 -8 -9 -4 -15 9 -22 -12 -8 -23 8 -7 18 -7 27 -2
11 7 12 10 2 10 -7 0 -10 5 -7 10 4 6 11 7 17 4 7 -4 8 -2 4 4 -9 15 -26 16
-26 1z"/>
<path d="M8921 6567 c-6 -6 -11 -15 -11 -21 0 -5 6 -2 13 9 8 10 19 15 25 11
6 -3 13 -3 16 2 7 12 -30 12 -43 -1z"/>
<path d="M8888 6493 c6 -2 9 -10 6 -15 -4 -7 -2 -8 4 -4 18 11 14 26 -5 25
-11 0 -13 -3 -5 -6z"/>
<path d="M8991 6414 c0 -11 3 -14 6 -6 3 7 2 16 -1 19 -3 4 -6 -2 -5 -13z"/>
<path d="M8867 6400 c3 -11 13 -20 22 -19 10 0 11 2 4 6 -7 2 -13 11 -13 19 0
8 -4 14 -9 14 -5 0 -7 -9 -4 -20z"/>
<path d="M8824 6355 c-4 -10 -15 -12 -33 -9 -19 4 -30 1 -34 -8 -4 -11 2 -13
27 -10 28 5 30 3 17 -12 -8 -9 -9 -16 -3 -16 6 0 14 9 17 20 4 11 10 18 14 16
4 -3 8 4 8 15 2 22 -5 25 -13 4z"/>
<path d="M8700 6320 c0 -5 5 -10 11 -10 5 0 7 5 4 10 -3 6 -8 10 -11 10 -2 0
-4 -4 -4 -10z"/>
<path d="M8782 6271 c-11 -7 -11 -9 2 -14 10 -4 16 -1 16 8 0 17 -1 17 -18 6z"/>
<path d="M8830 6276 c0 -2 8 -10 18 -17 15 -13 16 -12 3 4 -13 16 -21 21 -21
13z"/>
<path d="M8730 6230 c0 -4 9 -10 21 -13 12 -3 19 -1 17 5 -5 13 -38 20 -38 8z"/>
<path d="M8810 6229 c0 -5 5 -7 10 -4 6 3 10 8 10 11 0 2 -4 4 -10 4 -5 0 -10
-5 -10 -11z"/>
<path d="M8790 6221 c0 -10 19 -25 25 -20 1 2 -3 10 -11 17 -8 7 -14 8 -14 3z"/>
<path d="M8500 5956 c0 -2 7 -7 16 -10 8 -3 12 -2 9 4 -6 10 -25 14 -25 6z"/>
<path d="M8466 5874 c-11 -8 -16 -14 -10 -14 13 0 39 18 34 24 -3 2 -14 -2
-24 -10z"/>
<path d="M8303 5693 c0 -9 4 -10 10 -4 5 5 15 7 22 5 7 -3 15 -2 18 3 3 4 -7
8 -22 8 -17 1 -28 -5 -28 -12z"/>
<path d="M8079 5533 c-13 -16 -12 -17 3 -5 9 8 23 10 29 6 8 -4 9 -3 5 4 -10
17 -21 15 -37 -5z"/>
<path d="M8005 5500 c-8 -13 3 -50 15 -50 5 0 8 9 7 20 -1 11 -6 20 -12 20 -5
0 -3 5 5 10 9 6 10 10 3 10 -6 0 -15 -5 -18 -10z"/>
<path d="M8045 5499 c-4 -6 -5 -12 -2 -15 2 -3 7 2 10 11 7 17 1 20 -8 4z"/>
<path d="M7980 5440 c0 -5 5 -10 11 -10 5 0 7 5 4 10 -3 6 -8 10 -11 10 -2 0
-4 -4 -4 -10z"/>
<path d="M7940 5429 c0 -5 5 -7 10 -4 6 3 10 8 10 11 0 2 -4 4 -10 4 -5 0 -10
-5 -10 -11z"/>
<path d="M7910 5381 c0 -6 4 -12 8 -15 5 -3 9 1 9 9 0 8 -4 15 -9 15 -4 0 -8
-4 -8 -9z"/>
<path d="M7470 5071 c0 -5 5 -13 10 -16 6 -3 10 -2 10 4 0 5 -4 13 -10 16 -5
3 -10 2 -10 -4z"/>
<path d="M7293 4913 c4 -3 2 -12 -4 -19 -10 -13 6 -32 18 -20 4 3 1 6 -6 6 -7
0 -9 5 -6 10 4 6 12 7 18 3 7 -4 6 0 -2 10 -7 9 -16 17 -19 17 -3 0 -2 -3 1
-7z"/>
<path d="M6871 4353 c1 -18 3 -21 6 -10 3 10 9 14 16 10 7 -4 6 1 -2 10 -18
23 -21 22 -20 -10z"/>
<path d="M6710 4139 c0 -5 5 -7 10 -4 6 3 10 8 10 11 0 2 -4 4 -10 4 -5 0 -10
-5 -10 -11z"/>
<path d="M6585 4020 c-7 -12 2 -30 16 -30 12 0 12 27 0 35 -5 3 -12 1 -16 -5z"/>
<path d="M6738 4013 c6 -2 18 -2 25 0 6 3 1 5 -13 5 -14 0 -19 -2 -12 -5z"/>
<path d="M6655 3990 c-3 -6 1 -7 9 -4 18 7 21 14 7 14 -6 0 -13 -4 -16 -10z"/>
<path d="M6619 3963 c-13 -16 -12 -17 4 -4 9 7 17 15 17 17 0 8 -8 3 -21 -13z"/>
<path d="M6555 3950 c3 -5 8 -10 11 -10 2 0 4 5 4 10 0 6 -5 10 -11 10 -5 0
-7 -4 -4 -10z"/>
<path d="M6559 3903 c-13 -16 -12 -17 4 -4 9 7 17 15 17 17 0 8 -8 3 -21 -13z"/>
<path d="M6535 3869 c-4 -6 -5 -12 -2 -15 2 -3 7 2 10 11 7 17 1 20 -8 4z"/>
<path d="M6465 3860 c-3 -5 -1 -10 4 -10 6 0 11 5 11 10 0 6 -2 10 -4 10 -3 0
-8 -4 -11 -10z"/>
<path d="M6500 3852 c0 -7 4 -12 9 -12 4 0 7 -24 5 -52 l-3 -53 8 50 c6 38 5
54 -5 65 -10 10 -14 10 -14 2z"/>
<path d="M6510 3687 c4 -41 5 -41 8 -8 2 18 0 37 -5 42 -5 5 -6 -11 -3 -34z"/>
<path d="M6410 3679 c0 -5 5 -7 10 -4 6 3 10 8 10 11 0 2 -4 4 -10 4 -5 0 -10
-5 -10 -11z"/>
<path d="M6393 3555 c0 -33 2 -45 4 -27 2 18 2 45 0 60 -2 15 -4 0 -4 -33z"/>
<path d="M6391 3474 c0 -11 3 -14 6 -6 3 7 2 16 -1 19 -3 4 -6 -2 -5 -13z"/>
<path d="M6250 3319 c0 -5 5 -7 10 -4 6 3 10 8 10 11 0 2 -4 4 -10 4 -5 0 -10
-5 -10 -11z"/>
<path d="M4796 1931 c-3 -5 1 -11 9 -15 8 -3 15 -1 15 4 0 13 -18 22 -24 11z"/>
<path d="M4825 1880 c-3 -5 -2 -10 4 -10 5 0 13 5 16 10 3 6 2 10 -4 10 -5 0
-13 -4 -16 -10z"/>
<path d="M4854 1808 c10 -6 22 -6 26 -2 5 5 -3 10 -18 11 -22 1 -24 0 -8 -9z"/>
<path d="M4837 1683 c-13 -12 -7 -33 8 -33 8 0 15 5 15 10 0 6 -5 10 -11 10
-5 0 -7 5 -4 10 7 11 2 13 -8 3z"/>
<path d="M4825 1630 c-3 -5 1 -10 10 -10 9 0 13 5 10 10 -3 6 -8 10 -10 10 -2
0 -7 -4 -10 -10z"/>
<path d="M4798 1448 c-7 -19 31 -88 47 -88 8 0 15 5 15 11 0 6 -7 9 -15 5 -8
-3 -16 -2 -16 2 -6 32 -5 51 2 46 5 -3 9 0 9 5 0 6 7 11 16 11 8 0 12 5 9 10
-5 8 -11 8 -20 0 -9 -8 -15 -8 -20 0 -8 14 -22 13 -27 -2z"/>
<path d="M4834 1409 c-3 -5 7 -9 22 -9 15 0 24 3 20 7 -11 11 -35 12 -42 2z"/>
<path d="M4886 1341 c-4 -6 -2 -11 4 -11 6 0 8 -6 4 -12 -6 -10 -4 -10 7 0 9
9 10 15 2 23 -8 8 -13 8 -17 0z"/>
<path d="M4841 1306 c-6 -7 -1 -19 14 -32 22 -20 24 -20 28 -3 4 13 11 17 24
13 15 -5 15 -4 3 5 -9 6 -18 7 -24 1 -17 -17 -27 -11 -17 8 8 14 6 19 -5 19
-8 0 -18 -5 -23 -11z"/>
<path d="M4941 1274 c0 -11 3 -14 6 -6 3 7 2 16 -1 19 -3 4 -6 -2 -5 -13z"/>
<path d="M4830 1262 c0 -6 5 -14 10 -17 6 -4 8 -11 5 -16 -4 -5 -1 -9 4 -9 16
0 13 26 -4 40 -9 8 -15 9 -15 2z"/>
<path d="M4878 1213 c7 -3 16 -2 19 1 4 3 -2 6 -13 5 -11 0 -14 -3 -6 -6z"/>
<path d="M4894 1172 c-20 -19 -49 -19 -38 0 5 7 2 8 -6 3 -10 -6 -10 -11 3
-20 10 -7 17 -18 17 -26 0 -8 3 -10 8 -4 4 6 19 16 34 24 16 8 26 17 23 20 -3
2 -11 -1 -17 -7 -20 -20 -32 -13 -13 8 23 25 15 26 -11 2z"/>
<path d="M4903 1123 c-7 -2 -13 -12 -12 -21 0 -11 2 -12 6 -4 2 6 9 10 14 6 5
-3 9 2 9 10 0 9 -1 16 -2 15 -2 0 -9 -3 -15 -6z"/>
<path d="M4910 1076 c0 -2 7 -7 16 -10 8 -3 12 -2 9 4 -6 10 -25 14 -25 6z"/>
<path d="M4930 994 c0 -13 18 -39 24 -34 2 3 -2 14 -10 24 -8 11 -14 16 -14
10z"/>
<path d="M4978 813 c0 -5 -2 -14 -2 -22 -1 -20 -24 -25 -28 -7 -2 11 -6 9 -14
-8 -18 -38 0 -55 26 -25 17 19 20 20 16 5 -6 -16 -4 -17 9 -6 13 11 13 15 3
21 -10 7 -10 9 2 9 12 0 13 2 1 9 -7 5 -10 14 -7 20 4 6 5 11 2 11 -3 0 -7 -3
-8 -7z m-28 -53 c0 -5 -5 -10 -11 -10 -5 0 -7 5 -4 10 3 6 8 10 11 10 2 0 4
-4 4 -10z"/>
<path d="M4870 791 c0 -5 5 -13 10 -16 6 -3 10 -2 10 4 0 5 -4 13 -10 16 -5 3
-10 2 -10 -4z"/>
<path d="M4990 680 c0 -5 7 -7 15 -4 8 4 15 8 15 10 0 2 -7 4 -15 4 -8 0 -15
-4 -15 -10z"/>
<path d="M4890 640 c0 -6 11 -8 25 -6 25 5 36 -9 13 -16 -9 -3 -9 -6 0 -12 7
-4 12 -2 12 3 0 6 7 11 15 11 8 0 15 -4 15 -10 0 -5 5 -10 10 -10 19 0 10 15
-21 33 -34 19 -69 23 -69 7z"/>
<path d="M4992 636 c7 -8 15 -12 17 -11 5 6 -10 25 -20 25 -5 0 -4 -6 3 -14z"/>
<path d="M5010 560 c-10 -6 -11 -10 -2 -10 6 0 12 -7 12 -15 0 -8 4 -15 8 -15
5 0 9 7 9 15 0 8 -4 15 -9 15 -5 0 -6 5 -3 10 8 12 4 12 -15 0z"/>
<path d="M4910 543 c0 -1 13 -9 29 -17 27 -15 29 -14 24 4 -4 13 -13 19 -29
18 -13 -1 -24 -4 -24 -5z"/>
<path d="M5046 385 c-16 -12 -17 -15 -4 -15 9 0 18 7 22 15 7 18 6 18 -18 0z"/>
<path d="M4985 300 c-3 -5 -1 -10 4 -10 6 0 11 5 11 10 0 6 -2 10 -4 10 -3 0
-8 -4 -11 -10z"/>
<path d="M5070 284 c0 -21 17 -25 22 -6 3 11 0 19 -8 19 -8 0 -14 -6 -14 -13z"/>
<path d="M5034 162 c-15 -10 -13 -39 3 -39 7 0 13 4 13 9 0 4 7 8 15 8 8 0 15
7 15 16 0 14 -1 14 -16 0 -20 -20 -28 -20 -20 -1 6 17 5 18 -10 7z"/>
<path d="M5088 93 c7 -3 16 -2 19 1 4 3 -2 6 -13 5 -11 0 -14 -3 -6 -6z"/>
<path d="M5084 53 c2 -9 8 -19 15 -21 10 -3 10 0 2 17 -14 25 -20 27 -17 4z"/>
<path d="M5003 38 c2 -7 10 -12 16 -10 6 1 11 -6 11 -16 0 -14 2 -15 10 -2 9
15 -11 40 -33 40 -5 0 -7 -6 -4 -12z"/>
<path d="M5080 9 c0 -5 5 -7 10 -4 6 3 10 8 10 11 0 2 -4 4 -10 4 -5 0 -10 -5
-10 -11z"/>
</g>
</svg>
